<svg xmlns="http://www.w3.org/2000/svg" width="128" height="80" viewBox="0 0 128 80"><rect width="100%" height="100%" fill="#DDDDDD"/><path fill="#999999" d="M31.685 45.38h2.6v1.85h-8v-1.85h2.93v-8.43q0-.5.03-1.03l-2.08 1.74q-.18.14-.35.18-.18.03-.33 0-.16-.03-.28-.11-.12-.07-.18-.16l-.78-1.07 4.41-3.75h2.03v12.63Zm9.95-.45h3.71q.4 0 .64.22.23.23.23.6v1.48h-9.92v-.82q0-.25.11-.52.1-.28.33-.5l4.39-4.4q.55-.56.99-1.07.43-.51.72-1.01t.45-1.02q.15-.51.15-1.08 0-.52-.15-.92-.15-.39-.42-.66-.28-.27-.66-.41-.39-.13-.87-.13-.44 0-.81.12-.38.13-.67.36-.29.22-.49.52-.2.3-.3.66-.17.46-.44.61-.27.15-.78.07l-1.3-.23q.15-1.04.58-1.83.43-.78 1.08-1.3.64-.53 1.48-.8.83-.26 1.79-.26 1 0 1.83.29.83.3 1.42.84t.92 1.3q.33.76.33 1.69 0 .8-.23 1.48-.24.68-.63 1.3-.4.62-.93 1.2t-1.11 1.18l-3.26 3.33q.47-.14.94-.22.46-.07.88-.07Zm11.3.53q.61 0 1.07-.18.46-.17.78-.48.31-.31.47-.74.16-.43.16-.93 0-1.19-.66-1.8-.66-.61-1.82-.61-1.16 0-1.82.61-.66.61-.66 1.8 0 .5.16.93.16.43.48.74.31.31.77.48.46.18 1.07.18Zm0-10.99q-.55 0-.95.17-.4.17-.66.46-.27.28-.39.65-.13.37-.13.78 0 .43.11.83.1.41.35.73.25.31.66.5.41.19 1.01.19.6 0 1.01-.19.41-.19.66-.5.25-.32.36-.73.1-.4.1-.83 0-.41-.13-.78-.13-.37-.39-.65-.26-.29-.66-.46-.4-.17-.95-.17Zm2.44 5.22q1.32.43 1.95 1.31.63.89.63 2.17 0 .96-.36 1.74-.37.78-1.03 1.33t-1.58.85q-.93.3-2.05.3-1.12 0-2.04-.3-.93-.3-1.59-.85t-1.02-1.33q-.37-.78-.37-1.74 0-1.28.63-2.17.63-.88 1.95-1.31-1.05-.44-1.57-1.25-.53-.81-.53-1.95 0-.82.34-1.53.33-.71.93-1.24.6-.52 1.44-.82.83-.29 1.83-.29t1.84.29q.83.3 1.43.82.6.53.94 1.24.33.71.33 1.53 0 1.14-.52 1.95-.53.81-1.58 1.25Zm18.74 4.23-1.31 1.29-3.39-3.39-3.42 3.41-1.31-1.29 3.42-3.43-3.26-3.26 1.3-1.3 3.26 3.26 3.24-3.24 1.32 1.3-3.25 3.25 3.4 3.4Zm11.74 1.54q.61 0 1.07-.18.46-.17.78-.48.31-.31.47-.74.16-.43.16-.93 0-1.19-.66-1.8-.66-.61-1.82-.61-1.16 0-1.82.61-.66.61-.66 1.8 0 .5.16.93.16.43.48.74.31.31.77.48.46.18 1.07.18Zm0-10.99q-.55 0-.95.17-.4.17-.66.46-.27.28-.39.65-.13.37-.13.78 0 .43.11.83.1.41.35.73.25.31.66.5.41.19 1.01.19.6 0 1.01-.19.41-.19.66-.5.25-.32.36-.73.1-.4.1-.83 0-.41-.13-.78-.13-.37-.39-.65-.26-.29-.66-.46-.4-.17-.95-.17Zm2.44 5.22q1.32.43 1.95 1.31.63.89.63 2.17 0 .96-.36 1.74-.37.78-1.03 1.33t-1.58.85q-.93.3-2.05.3-1.12 0-2.04-.3-.93-.3-1.59-.85t-1.02-1.33q-.37-.78-.37-1.74 0-1.28.63-2.17.63-.88 1.95-1.31-1.05-.44-1.57-1.25-.53-.81-.53-1.95 0-.82.34-1.53.33-.71.93-1.24.6-.52 1.44-.82.83-.29 1.83-.29t1.84.29q.83.3 1.43.82.6.53.94 1.24.33.71.33 1.53 0 1.14-.52 1.95-.53.81-1.58 1.25Zm14.46.31q0 1.89-.4 3.28-.41 1.4-1.12 2.31-.72.91-1.69 1.35-.98.45-2.11.45t-2.09-.45q-.97-.44-1.68-1.35-.71-.91-1.11-2.31-.4-1.39-.4-3.28 0-1.9.4-3.29.4-1.39 1.11-2.3.71-.91 1.68-1.36.96-.44 2.09-.44t2.11.44q.97.45 1.69 1.36.71.91 1.12 2.3.4 1.39.4 3.29Zm-2.55 0q0-1.57-.23-2.6t-.61-1.64q-.39-.61-.89-.86-.5-.24-1.04-.24-.53 0-1.02.24-.5.25-.88.86t-.6 1.64q-.23 1.03-.23 2.6t.23 2.6q.22 1.03.6 1.64.38.61.88.85.49.25 1.02.25.54 0 1.04-.25.5-.24.89-.85.38-.61.61-1.64.23-1.03.23-2.6Z"/></svg>